<?xml version="1.0" encoding="utf-8"?>
<!-- Generator: Adobe Illustrator 22.0.1, SVG Export Plug-In . SVG Version: 6.00 Build 0)  -->
<svg version="1.1" id="Layer_1" xmlns="http://www.w3.org/2000/svg" xmlns:xlink="http://www.w3.org/1999/xlink" x="0px" y="0px"
	 viewBox="0 0 99.9 99.3" style="enable-background:new 0 0 99.9 99.3;" xml:space="preserve">
<style type="text/css">
	.st0{fill:none;stroke:#DFD9D3;stroke-miterlimit:10;}
	.st1{fill:none;stroke:#ED2024;stroke-miterlimit:10;}
	.st2{fill:#ED2024;}
	.st3{fill:none;stroke:#48484A;stroke-width:0.75;stroke-miterlimit:10;}
	.st4{fill:#62AEB7;}
	.st5{fill:#FFFFFF;}
</style>
<circle class="st0" cx="50" cy="49.7" r="48.9"/>
<g>
	<line class="st1" x1="82" y1="82.6" x2="21.5" y2="82.6"/>
	<line class="st1" x1="82" y1="85" x2="21.5" y2="85"/>
	<line class="st1" x1="82" y1="51.8" x2="21.5" y2="51.8"/>
	<line class="st1" x1="72.5" y1="82.6" x2="72.5" y2="71"/>
	<line class="st1" x1="72.5" y1="63.1" x2="72.5" y2="51.4"/>
	<line class="st1" x1="62.1" y1="82.6" x2="62.1" y2="71"/>
	<line class="st1" x1="62.1" y1="63.3" x2="62.1" y2="51.7"/>
	<line class="st1" x1="51.7" y1="82.6" x2="51.7" y2="71.1"/>
	<line class="st1" x1="51.7" y1="63.3" x2="51.7" y2="51.8"/>
	<line class="st1" x1="41.3" y1="82.6" x2="41.3" y2="71"/>
	<line class="st1" x1="41.3" y1="63.3" x2="41.3" y2="51.7"/>
	<line class="st1" x1="30.9" y1="82.6" x2="30.9" y2="71"/>
	<line class="st1" x1="30.9" y1="63.2" x2="30.9" y2="51.6"/>
	<circle class="st2" cx="30.9" cy="67.1" r="3.9"/>
	<circle class="st2" cx="41.3" cy="67.1" r="3.9"/>
	<circle class="st2" cx="51.7" cy="67.1" r="3.9"/>
	<circle class="st2" cx="62.1" cy="67.1" r="3.9"/>
	<circle class="st2" cx="72.5" cy="67.1" r="3.9"/>
	<path class="st3" d="M28.6,48.9V27.8c0,0,2.9-17.9,21.1-17.9v40.4"/>
	<path class="st3" d="M72.7,48.9V27.8c0,0-2.9-17.9-21.1-17.9v40.4"/>
	<line class="st3" x1="40.4" y1="11.7" x2="40.4" y2="49.8"/>
	<line class="st3" x1="61.9" y1="12.2" x2="61.9" y2="49.8"/>
	<path class="st4" d="M25.7,24.3"/>
	<line class="st3" x1="28.6" y1="27.4" x2="72.7" y2="27.4"/>
	<line class="st3" x1="28.6" y1="39" x2="72.7" y2="39"/>
	<rect x="49.9" y="8.6" class="st5" width="1.3" height="42.1"/>
</g>
</svg>
