<?xml version="1.0" encoding="utf-8"?>
<!-- Generator: Adobe Illustrator 22.0.1, SVG Export Plug-In . SVG Version: 6.00 Build 0)  -->
<svg version="1.1" id="Layer_1" xmlns="http://www.w3.org/2000/svg" xmlns:xlink="http://www.w3.org/1999/xlink" x="0px" y="0px"
	 viewBox="0 0 99.3 99.2" style="enable-background:new 0 0 99.3 99.2;" xml:space="preserve">
<style type="text/css">
	.st0{fill:none;stroke:#DFD9D3;stroke-miterlimit:10;}
	.st1{fill:#ED1C24;}
	.st2{fill:#121419;}
	.st3{fill:#666766;}
	.st4{fill:none;stroke:#666766;stroke-width:4;stroke-miterlimit:10;}
</style>
<circle class="st0" cx="49.6" cy="49.6" r="48.9"/>
<circle cx="50" cy="29.3" r="2.8"/>
<path class="st1" d="M48.8,32.6c-0.9-0.2-2.4,1-3,1.5c-0.8,0.6-1.5,1.3-2.1,2c-0.3,0.4-2.5,2.6-2.3,3c0,0,1.5,4,4.6,6.1l0.9-1.1
	c0,0-1.1-1.1-2-2.4c-0.8-1.2-1.4-2.5-0.8-3.3c0,0,0.6-0.8,1-0.3c0,0,0.3,4.6-1.9,7.9c0,0,5.5-0.1,5.8,1.2c0,0,1.9-4.5,1.9-6.8
	c0,0,1.4-0.5,1.2-1.9c-0.7-2-1.5-4.2-2.9-5.7C49.1,32.7,48.9,32.6,48.8,32.6z"/>
<path d="M50.6,41.9c0,0,1.8,0.9,3.4,1.2c0,0,2.7-1,2.3-0.2c-0.4,0.7-2,0.6-2.3,0.6c-0.3,0-4-0.6-4-0.6L50.6,41.9z"/>
<path d="M50.1,43.3c0,0,3.7,0.5,3.9,0.4s0.4-0.4,0.4-0.4l-3.9-0.8L50.1,43.3z"/>
<path class="st2" d="M43.4,46.5c0,0-3.2,0.6-0.9,4.7c0,0-1.4,7.1-1.8,7.3c0,0-3.3-2.9-4.6-1.6c0,0-2.9-0.9-3.2-1.2
	c0,0,0.1,2.2-0.6,2.5c-0.7,0.3,6.3,2.4,7.5,3.2c1.2,0.8,2.5,1.6,3.4-0.1c0.9-1.7,3-5.5,3-7.2c0,0,4.4,4.1,4.2,5.8
	c0,0-0.8,6.2,1.5,8.3c0,0,0.2,2.4,0.2,2.9c0,0,1.1-0.2,1.6-1.1c0,0,0.2-6.2-0.4-9.1c0,0,0.8-1.6,0.3-3c0,0-1.4-7-4.4-9.6
	C49,48.2,49.6,45.5,43.4,46.5z"/>
<path class="st1" d="M51.4,70.8c0,0,1.4,1.5,2.6-0.6c0,0,1.3,1.3,2.3,0.9c0,0,1.8-0.2,2-1c0,0.1,0.6,0.8,0.6,1.2
	c-0.2,1.4-2.2,2.2-3.5,2.4c-0.4,0.1-4,0.5-4.1,0.1C51.2,73.9,50.7,71.6,51.4,70.8z"/>
<path class="st1" d="M32.1,55.9c0,0-2.3,1.6-1.9,2.1c0,0-2.9-1.2-3.6-0.5c-0.5,0.5-1.7,1.1-2,0.1c-0.2-0.8,1.1-1.4,1.6-1.8
	c0.9-0.6,3.8-3,5-2.4C32.3,54.1,32.1,55.9,32.1,55.9z"/>
<path class="st3" d="M81.4,82.2H17.8c-1.8,0-3.3-1.5-3.3-3.3v0c0-1.8,1.5-3.3,3.3-3.3h63.5c1.8,0,3.3,1.5,3.3,3.3v0
	C84.7,80.7,83.2,82.2,81.4,82.2z"/>
<path class="st3" d="M77.3,77.7h-10c-1.8,0-3.2-1.4-3.2-3.2v0c0-1.8,1.4-3.2,3.2-3.2h10c1.8,0,3.2,1.4,3.2,3.2v0
	C80.6,76.3,79.1,77.7,77.3,77.7z"/>
<line class="st4" x1="70.7" y1="73.1" x2="78.3" y2="48.8"/>
<line class="st4" x1="67.9" y1="44.7" x2="78.9" y2="51"/>
</svg>
