<svg id="Layer_1" data-name="Layer 1" xmlns="http://www.w3.org/2000/svg" viewBox="0 0 98.82 98.82"><defs><style>.cls-1{fill:#ed1c24;}.cls-2{fill:#231f20;}.cls-3,.cls-4{fill:none;stroke-miterlimit:10;}.cls-3{stroke:#dad6ca;stroke-width:0.2px;}.cls-4{stroke:#dfd9d3;}</style></defs><title>securitysystemwithring</title><polygon class="cls-1" points="71.46 49.28 49.08 29.08 49.08 29.08 49.07 29.07 26.69 49.27 30.19 52.43 49.07 35.39 67.96 52.44 71.46 49.28"/><polygon class="cls-1" points="49.08 38.86 49.08 38.87 49.07 38.86 35.26 51.33 35.26 69.75 62.86 69.75 62.89 51.34 49.08 38.86"/><path d="M56.63,61.82C53.18,60.17,53.8,57.55,53.8,55c0-1.83-1.64-2.85-2.56-3.27a1.21,1.21,0,0,0,0-.19,1.88,1.88,0,0,0-3.75,0,1.36,1.36,0,0,0,0,.29A3.76,3.76,0,0,0,45.18,55c0,2.55.62,5.17-2.82,6.82v1.66H56.63Z" transform="translate(-0.68 -0.71)"/><path class="cls-2" d="M49.49,66.75a1.93,1.93,0,0,0,1.93-1.93c0-.06,0-.12,0-.19H47.59a1.37,1.37,0,0,0,0,.19A1.92,1.92,0,0,0,49.49,66.75Z" transform="translate(-0.68 -0.71)"/><path class="cls-1" d="M76,41.44a10.37,10.37,0,0,1,2.92,16.8c-.55.58.33,1.47.89.89a11.65,11.65,0,0,0-3.18-18.77c-.72-.36-1.35.72-.63,1.08Z" transform="translate(-0.68 -0.71)"/><path class="cls-1" d="M82.67,37.78a13.85,13.85,0,0,1,3.89,22.4c-.55.58.33,1.46.89.88A15.11,15.11,0,0,0,83.31,36.7c-.72-.36-1.36.72-.64,1.08Z" transform="translate(-0.68 -0.71)"/><path class="cls-1" d="M23.57,40.36a11.65,11.65,0,0,0-3.18,18.77c.55.58,1.44-.3.88-.89a10.39,10.39,0,0,1,2.93-16.8c.72-.36.08-1.44-.63-1.08Z" transform="translate(-0.68 -0.71)"/><path class="cls-1" d="M16.87,36.7C7.34,41.48,5.41,53.37,12.73,61.06c.56.58,1.44-.3.88-.88a13.86,13.86,0,0,1,3.89-22.4c.72-.36.09-1.44-.63-1.08Z" transform="translate(-0.68 -0.71)"/><path class="cls-3" d="M62.54,31.51" transform="translate(-0.68 -0.71)"/><path class="cls-3" d="M72.72,31.51" transform="translate(-0.68 -0.71)"/><circle class="cls-4" cx="49.41" cy="49.41" r="48.91"/></svg>