<?xml version="1.0" encoding="utf-8"?>
<!-- Generator: Adobe Illustrator 22.0.1, SVG Export Plug-In . SVG Version: 6.00 Build 0)  -->
<svg version="1.1" id="Layer_1" xmlns="http://www.w3.org/2000/svg" xmlns:xlink="http://www.w3.org/1999/xlink" x="0px" y="0px"
	 viewBox="0 0 99.6 99.4" style="enable-background:new 0 0 99.6 99.4;" xml:space="preserve">
<style type="text/css">
	.st0{fill:none;stroke:#DFD9D3;stroke-miterlimit:10;}
	.st1{fill:#ED2024;}
	.st2{fill:#E9E7E9;}
	.st3{fill:#151F1B;}
</style>
<circle class="st0" cx="49.7" cy="49.7" r="48.9"/>
<path d="M40,12.1c0,0,2,1.2,3.9-4.7c2.7-8.2,22.2,3.2,19.9,8.2c-2,4.3-5.3,6.4-5.3,6.4L40,12.1z"/>
<path class="st1" d="M45.1,14.1c0,0,11.9,2.1,14.8,9.5c0,0,0,1.8-2.1,1C55.6,23.8,45.1,14.1,45.1,14.1z"/>
<path d="M35.4,19.6c1.8,0.8,4.4-2.1,6.1-2.4c2.9-0.5,6.3,1.5,8.5,3.2c2.2,1.6,4.1,3.6,6.2,5.4c1.3,1.1,2.9,2.2,4.6,1.9
	c0.1-2.2-2.8-3.7-4.2-4.9c-3.7-3-7.6-5.9-11.6-8.7c-1.8-1.3-4.7-3.2-7.1-2.8c-2.5,0.4-3.8,4.4-3.5,6.6C34.7,18.9,35,19.4,35.4,19.6z
	"/>
<path class="st2" d="M62,33c0,0,0,0.7,1,0.3c0.6-0.2,1.6-0.9,0.9-1.6c-1.5-1.2-3-2.4-4.2-4c-0.3-0.4,1.2-0.3,1.2-0.3
	c0.6,0.1,1.2,0.6,1.7,0.9c1.4,0.9,2.6,1.9,3.8,3c-1.2-1-2.4-2.1-3.6-3.2c-0.9-0.8-2.7-1.8-2.8-3.1c-0.1-0.4,0.1-0.8,0.4-0.9
	c0.3-0.1,0.7,0,1,0.2c2.4,1.3,4.3,3.6,5.8,5.8c-1.4-1.6-2.7-3.2-3.9-4.8c-0.5-0.7-1-1.4-1.3-2.2c-0.1-0.1-0.1-0.3,0-0.4
	c0.1-0.1,0.2-0.1,0.2-0.1c1.4-0.2,2.3,1,3,2.1c1.4,2.4,3,4.7,3.4,7.5c0.4,2.6-0.4,5-0.9,7.5c-0.4,2-0.8,5.2,0.4,7
	c0,0-5.1,1.5-6.8-0.8c-1.8-2.3-3.2-9.8-2.3-15.9S62.4,25,62,33z"/>
<path class="st2" d="M53.9,79.7c0,0,4.6-5.8-1.4-4.4c0,0-1.7,1.3-2.1,2c0,0-2.7-0.1-4.4,3.6c-1,2.2-1.5,4.8-1.7,7.3
	c-0.1,0.7-0.3,2.1,0,2.7c0.6,1.1,2.4,0,3.3-0.1c4-0.7,8.5-0.3,12.6-0.5c0,0,10-0.6,11.8-0.1c0,0,1.3-1.6-1.1-2.1c0,0,1.3-2-2.4-2.6
	C64.7,84.9,62.5,84.4,53.9,79.7z"/>
<path class="st2" d="M32.4,31.1c0,0-4.4,0.7-1,4.8s8,8.6,8,8.6l-3.1,6.8L26.1,35.6c0,0,0.6-1.7,1.7-1C29.1,35.3,29.5,28.9,32.4,31.1
	z"/>
<path class="st2" d="M39.5,44.2c0,0,2.4,1.6,2.5,4.8l0.5-8.4L39.5,44.2z"/>
<path class="st3" d="M37.8,47.7c0,0,1,0.6,1,2.3s0,5.6,0,5.6l1.9,1.8c0,0-0.1-6.7-0.1-8.1c0-1.4,1-2.2,0.6-3.2c-0.4-1-1.8-2-1.8-2
	L37.8,47.7z"/>
<path class="st3" d="M29.2,31.6c0,0-8.6-2.9-6.5,4.5S28,50.2,28,50.2l4,0.9l-6.4,0.2c0,0,16.8,20.5,17.9,24.4c0,0,1.7-7.4,0-12.4
	c0,0-4.3-6.7-10.8-16.7S21.6,31.8,29.2,31.6z"/>
<path class="st3" d="M42.8,40.6c0,0,2.4,2.4,2.9,0.5l4.3,9.5l2.2-4.3c0,0,1,28.6-1.9,31.1c0,0-2.7-0.3-4.4,3.6l-3-1L42.8,40.6z"/>
</svg>
