<?xml version="1.0" encoding="utf-8"?>
<!-- Generator: Adobe Illustrator 22.0.1, SVG Export Plug-In . SVG Version: 6.00 Build 0)  -->
<svg version="1.1" id="Layer_1" xmlns="http://www.w3.org/2000/svg" xmlns:xlink="http://www.w3.org/1999/xlink" x="0px" y="0px"
	 viewBox="0 0 551.4 697" style="enable-background:new 0 0 551.4 697;" xml:space="preserve">
<style type="text/css">
	.st0{fill:none;stroke:#DDDBDB;stroke-miterlimit:10;}
</style>
<polygon class="st0" points="74.1,108 33,70.2 76,37.6 118.4,74.8 "/>
<polygon class="st0" points="154.1,112.3 113,74.5 156,41.9 198.4,79.1 "/>
<polygon class="st0" points="234.1,116.6 193,78.8 236,46.2 278.4,83.4 "/>
<polygon class="st0" points="314.1,120.9 273,83.1 316,50.5 358.4,87.6 "/>
<polygon class="st0" points="394.1,125.2 353,87.4 396,54.8 438.4,91.9 "/>
<polygon class="st0" points="474.1,129.5 433,91.6 476.1,59.1 518.4,96.2 "/>
<polygon class="st0" points="74.1,108 33,70.2 76,37.6 118.4,74.8 "/>
<polygon class="st0" points="154.1,112.3 113,74.5 156,41.9 198.4,79.1 "/>
<polygon class="st0" points="234.1,116.6 193,78.8 236,46.2 278.4,83.4 "/>
<polygon class="st0" points="314.1,120.9 273,83.1 316,50.5 358.4,87.6 "/>
<polygon class="st0" points="394.1,125.2 353,87.4 396,54.8 438.4,91.9 "/>
<polygon class="st0" points="474.1,129.5 433,91.6 476.1,59.1 518.4,96.2 "/>
<polygon class="st0" points="234.1,185.4 193,147.6 236,115 278.4,152.2 "/>
<polygon class="st0" points="74.1,176.8 33,139 76,106.4 118.4,143.6 "/>
<polygon class="st0" points="154.1,181.1 113,143.3 156,110.7 198.4,147.9 "/>
<polygon class="st0" points="314.1,189.7 273,151.9 316,119.3 358.4,156.5 "/>
<polygon class="st0" points="394.1,194 353,156.2 396,123.6 438.4,160.7 "/>
<polygon class="st0" points="474.1,198.3 433,160.5 476.1,127.9 518.4,165 "/>
<polygon class="st0" points="234.1,254.2 193,216.4 236,183.8 278.4,221 "/>
<polygon class="st0" points="74.1,245.7 33,207.8 76,175.3 118.4,212.4 "/>
<polygon class="st0" points="154.1,249.9 113,212.1 156,179.5 198.4,216.7 "/>
<polygon class="st0" points="314.1,258.5 273,220.7 316,188.1 358.4,225.3 "/>
<polygon class="st0" points="394.1,262.8 353,225 396,192.4 438.4,229.6 "/>
<polygon class="st0" points="474.1,267.1 433,229.3 476.1,196.7 518.4,233.8 "/>
<polygon class="st0" points="234.1,323 193,285.2 236,252.6 278.4,289.8 "/>
<polygon class="st0" points="74.1,314.5 33,276.7 76,244.1 118.4,281.2 "/>
<polygon class="st0" points="154.1,318.8 113,280.9 156,248.4 198.4,285.5 "/>
<polygon class="st0" points="314.1,327.3 273,289.5 316,256.9 358.4,294.1 "/>
<polygon class="st0" points="394.1,331.6 353,293.8 396,261.2 438.4,298.4 "/>
<polygon class="st0" points="474.1,335.9 433,298.1 476.1,265.5 518.4,302.7 "/>
<polygon class="st0" points="234.1,391.9 193,354 236,321.5 278.4,358.6 "/>
<polygon class="st0" points="74.1,383.3 33,345.5 76,312.9 118.4,350 "/>
<polygon class="st0" points="154.1,387.6 113,349.8 156,317.2 198.4,354.3 "/>
<polygon class="st0" points="314.1,396.1 273,358.3 316,325.7 358.4,362.9 "/>
<polygon class="st0" points="394.1,400.4 353,362.6 396,330 438.4,367.2 "/>
<polygon class="st0" points="474.1,404.7 433,366.9 476.1,334.3 518.4,371.5 "/>
<polygon class="st0" points="234.1,460.7 193,422.9 236,390.3 278.4,427.4 "/>
<polygon class="st0" points="74.1,452.1 33,414.3 76,381.7 118.4,418.9 "/>
<polygon class="st0" points="154.1,456.4 113,418.6 156,386 198.4,423.1 "/>
<polygon class="st0" points="314.1,465 273,427.1 316,394.6 358.4,431.7 "/>
<polygon class="st0" points="394.1,469.2 353,431.4 396,398.8 438.4,436 "/>
<polygon class="st0" points="474.1,473.5 433,435.7 476.1,403.1 518.4,440.3 "/>
<polygon class="st0" points="234.1,529.5 193,491.7 236,459.1 278.4,496.2 "/>
<polygon class="st0" points="74.1,520.9 33,483.1 76,450.5 118.4,487.7 "/>
<polygon class="st0" points="154.1,525.2 113,487.4 156,454.8 198.4,492 "/>
<polygon class="st0" points="314.1,533.8 273,496 316,463.4 358.4,500.5 "/>
<polygon class="st0" points="394.1,538.1 353,500.2 396,467.7 438.4,504.8 "/>
<polygon class="st0" points="474.1,542.3 433,504.5 476.1,471.9 518.4,509.1 "/>
<polygon class="st0" points="234.1,598.3 193,560.5 236,527.9 278.4,565.1 "/>
<polygon class="st0" points="74.1,589.7 33,551.9 76,519.3 118.4,556.5 "/>
<polygon class="st0" points="154.1,594 113,556.2 156,523.6 198.4,560.8 "/>
<polygon class="st0" points="314.1,602.6 273,564.8 316,532.2 358.4,569.3 "/>
<polygon class="st0" points="394.1,606.9 353,569.1 396,536.5 438.4,573.6 "/>
<polygon class="st0" points="474.1,611.2 433,573.3 476.1,540.8 518.4,577.9 "/>
</svg>
