<?xml version="1.0" encoding="utf-8"?>
<!-- Generator: Adobe Illustrator 22.0.1, SVG Export Plug-In . SVG Version: 6.00 Build 0)  -->
<svg version="1.1" id="Layer_1" xmlns="http://www.w3.org/2000/svg" xmlns:xlink="http://www.w3.org/1999/xlink" x="0px" y="0px"
	 viewBox="0 0 505.1 761.7" style="enable-background:new 0 0 505.1 761.7;" xml:space="preserve">
<style type="text/css">
	.st0{fill:none;stroke:#DDDBDB;stroke-width:0.5;stroke-miterlimit:10;}
</style>
<polygon class="st0" points="42.4,80.8 42.4,29.9 86.5,4.5 130.5,29.9 130.5,80.8 86.5,106.2 "/>
<polygon class="st0" points="129.9,80.8 129.9,29.9 174,4.5 218,29.9 218,80.8 174,106.2 "/>
<polygon class="st0" points="86.5,161 86.5,110.2 130.5,84.8 174.5,110.2 174.5,161 130.5,186.5 "/>
<polygon class="st0" points="174,161 174,110.2 218,84.8 262,110.2 262,161 218,186.5 "/>
<polygon class="st0" points="261.5,161 261.5,110.2 305.5,84.8 349.5,110.2 349.5,161 305.5,186.5 "/>
<polygon class="st0" points="349,161 349,110.2 393,84.8 437.1,110.2 437.1,161 393,186.5 "/>
<polygon class="st0" points="217.5,80.8 217.5,29.9 261.5,4.5 305.5,29.9 305.5,80.8 261.5,106.2 "/>
<polygon class="st0" points="305,80.8 305,29.9 349,4.5 393,29.9 393,80.8 349,106.2 "/>
<polygon class="st0" points="42.4,241.9 42.4,191 86.5,165.6 130.5,191 130.5,241.9 86.5,267.3 "/>
<polygon class="st0" points="129.9,241.9 129.9,191 174,165.6 218,191 218,241.9 174,267.3 "/>
<polygon class="st0" points="86.5,322.2 86.5,271.3 130.5,245.9 174.5,271.3 174.5,322.2 130.5,347.6 "/>
<polygon class="st0" points="174,322.2 174,271.3 218,245.9 262,271.3 262,322.2 218,347.6 "/>
<polygon class="st0" points="261.5,322.2 261.5,271.3 305.5,245.9 349.5,271.3 349.5,322.2 305.5,347.6 "/>
<polygon class="st0" points="349,322.2 349,271.3 393,245.9 437.1,271.3 437.1,322.2 393,347.6 "/>
<polygon class="st0" points="217.5,241.9 217.5,191 261.5,165.6 305.5,191 305.5,241.9 261.5,267.3 "/>
<polygon class="st0" points="305,241.9 305,191 349,165.6 393,191 393,241.9 349,267.3 "/>
<polygon class="st0" points="10.7,108.6 10.7,57.8 54.7,32.4 98.7,57.8 98.7,108.6 54.7,134 "/>
<polygon class="st0" points="98.2,108.6 98.2,57.8 142.2,32.4 186.3,57.8 186.3,108.6 142.2,134 "/>
<polygon class="st0" points="54.7,188.9 54.7,138.1 98.7,112.6 142.8,138.1 142.8,188.9 98.7,214.3 "/>
<polygon class="st0" points="142.2,188.9 142.2,138.1 186.3,112.6 230.3,138.1 230.3,188.9 186.3,214.3 "/>
<polygon class="st0" points="229.7,188.9 229.7,138.1 273.8,112.6 317.8,138.1 317.8,188.9 273.8,214.3 "/>
<polygon class="st0" points="317.3,188.9 317.3,138.1 361.3,112.6 405.3,138.1 405.3,188.9 361.3,214.3 "/>
<polygon class="st0" points="185.7,108.6 185.7,57.8 229.7,32.4 273.8,57.8 273.8,108.6 229.7,134 "/>
<polygon class="st0" points="273.2,108.6 273.2,57.8 317.3,32.4 361.3,57.8 361.3,108.6 317.3,134 "/>
<polygon class="st0" points="10.7,269.7 10.7,218.9 54.7,193.5 98.7,218.9 98.7,269.7 54.7,295.1 "/>
<polygon class="st0" points="98.2,269.7 98.2,218.9 142.2,193.5 186.3,218.9 186.3,269.7 142.2,295.1 "/>
<polygon class="st0" points="54.7,350 54.7,299.2 98.7,273.7 142.8,299.2 142.8,350 98.7,375.4 "/>
<polygon class="st0" points="142.2,350 142.2,299.2 186.3,273.7 230.3,299.2 230.3,350 186.3,375.4 "/>
<polygon class="st0" points="229.7,350 229.7,299.2 273.8,273.7 317.8,299.2 317.8,350 273.8,375.4 "/>
<polygon class="st0" points="317.3,350 317.3,299.2 361.3,273.7 405.3,299.2 405.3,350 361.3,375.4 "/>
<polygon class="st0" points="185.7,269.7 185.7,218.9 229.7,193.5 273.8,218.9 273.8,269.7 229.7,295.1 "/>
<polygon class="st0" points="273.2,269.7 273.2,218.9 317.3,193.5 361.3,218.9 361.3,269.7 317.3,295.1 "/>
<polygon class="st0" points="90.4,144.8 90.4,93.9 134.5,68.5 178.5,93.9 178.5,144.8 134.5,170.2 "/>
<polygon class="st0" points="177.9,144.8 177.9,93.9 222,68.5 266,93.9 266,144.8 222,170.2 "/>
<polygon class="st0" points="134.5,225 134.5,174.2 178.5,148.8 222.5,174.2 222.5,225 178.5,250.5 "/>
<polygon class="st0" points="222,225 222,174.2 266,148.8 310,174.2 310,225 266,250.5 "/>
<polygon class="st0" points="309.5,225 309.5,174.2 353.5,148.8 397.5,174.2 397.5,225 353.5,250.5 "/>
<polygon class="st0" points="397,225 397,174.2 441,148.8 485.1,174.2 485.1,225 441,250.5 "/>
<polygon class="st0" points="265.5,144.8 265.5,93.9 309.5,68.5 353.5,93.9 353.5,144.8 309.5,170.2 "/>
<polygon class="st0" points="353,144.8 353,93.9 397,68.5 441,93.9 441,144.8 397,170.2 "/>
<polygon class="st0" points="90.4,305.9 90.4,255 134.5,229.6 178.5,255 178.5,305.9 134.5,331.3 "/>
<polygon class="st0" points="177.9,305.9 177.9,255 222,229.6 266,255 266,305.9 222,331.3 "/>
<polygon class="st0" points="134.5,386.2 134.5,335.3 178.5,309.9 222.5,335.3 222.5,386.2 178.5,411.6 "/>
<polygon class="st0" points="222,386.2 222,335.3 266,309.9 310,335.3 310,386.2 266,411.6 "/>
<polygon class="st0" points="309.5,386.2 309.5,335.3 353.5,309.9 397.5,335.3 397.5,386.2 353.5,411.6 "/>
<polygon class="st0" points="397,386.2 397,335.3 441,309.9 485.1,335.3 485.1,386.2 441,411.6 "/>
<polygon class="st0" points="265.5,305.9 265.5,255 309.5,229.6 353.5,255 353.5,305.9 309.5,331.3 "/>
<polygon class="st0" points="353,305.9 353,255 397,229.6 441,255 441,305.9 397,331.3 "/>
<polygon class="st0" points="42.4,424.1 42.4,373.3 86.5,347.8 130.5,373.3 130.5,424.1 86.5,449.5 "/>
<polygon class="st0" points="129.9,424.1 129.9,373.3 174,347.8 218,373.3 218,424.1 174,449.5 "/>
<polygon class="st0" points="86.5,504.4 86.5,453.5 130.5,428.1 174.5,453.5 174.5,504.4 130.5,529.8 "/>
<polygon class="st0" points="174,504.4 174,453.5 218,428.1 262,453.5 262,504.4 218,529.8 "/>
<polygon class="st0" points="261.5,504.4 261.5,453.5 305.5,428.1 349.5,453.5 349.5,504.4 305.5,529.8 "/>
<polygon class="st0" points="349,504.4 349,453.5 393,428.1 437.1,453.5 437.1,504.4 393,529.8 "/>
<polygon class="st0" points="217.5,424.1 217.5,373.3 261.5,347.8 305.5,373.3 305.5,424.1 261.5,449.5 "/>
<polygon class="st0" points="305,424.1 305,373.3 349,347.8 393,373.3 393,424.1 349,449.5 "/>
<polygon class="st0" points="42.4,585.2 42.4,534.4 86.5,509 130.5,534.4 130.5,585.2 86.5,610.6 "/>
<polygon class="st0" points="129.9,585.2 129.9,534.4 174,509 218,534.4 218,585.2 174,610.6 "/>
<polygon class="st0" points="86.5,665.5 86.5,614.6 130.5,589.2 174.5,614.6 174.5,665.5 130.5,690.9 "/>
<polygon class="st0" points="174,665.5 174,614.6 218,589.2 262,614.6 262,665.5 218,690.9 "/>
<polygon class="st0" points="261.5,665.5 261.5,614.6 305.5,589.2 349.5,614.6 349.5,665.5 305.5,690.9 "/>
<polygon class="st0" points="349,665.5 349,614.6 393,589.2 437.1,614.6 437.1,665.5 393,690.9 "/>
<polygon class="st0" points="217.5,585.2 217.5,534.4 261.5,509 305.5,534.4 305.5,585.2 261.5,610.6 "/>
<polygon class="st0" points="305,585.2 305,534.4 349,509 393,534.4 393,585.2 349,610.6 "/>
<polygon class="st0" points="10.7,451.9 10.7,401.1 54.7,375.7 98.7,401.1 98.7,451.9 54.7,477.4 "/>
<polygon class="st0" points="98.2,451.9 98.2,401.1 142.2,375.7 186.3,401.1 186.3,451.9 142.2,477.4 "/>
<polygon class="st0" points="54.7,532.2 54.7,481.4 98.7,456 142.8,481.4 142.8,532.2 98.7,557.6 "/>
<polygon class="st0" points="142.2,532.2 142.2,481.4 186.3,456 230.3,481.4 230.3,532.2 186.3,557.6 "/>
<polygon class="st0" points="229.7,532.2 229.7,481.4 273.8,456 317.8,481.4 317.8,532.2 273.8,557.6 "/>
<polygon class="st0" points="317.3,532.2 317.3,481.4 361.3,456 405.3,481.4 405.3,532.2 361.3,557.6 "/>
<polygon class="st0" points="185.7,451.9 185.7,401.1 229.7,375.7 273.8,401.1 273.8,451.9 229.7,477.4 "/>
<polygon class="st0" points="273.2,451.9 273.2,401.1 317.3,375.7 361.3,401.1 361.3,451.9 317.3,477.4 "/>
<polygon class="st0" points="10.7,613.1 10.7,562.2 54.7,536.8 98.7,562.2 98.7,613.1 54.7,638.5 "/>
<polygon class="st0" points="98.2,613.1 98.2,562.2 142.2,536.8 186.3,562.2 186.3,613.1 142.2,638.5 "/>
<polygon class="st0" points="54.7,693.3 54.7,642.5 98.7,617.1 142.8,642.5 142.8,693.3 98.7,718.8 "/>
<polygon class="st0" points="142.2,693.3 142.2,642.5 186.3,617.1 230.3,642.5 230.3,693.3 186.3,718.8 "/>
<polygon class="st0" points="229.7,693.3 229.7,642.5 273.8,617.1 317.8,642.5 317.8,693.3 273.8,718.8 "/>
<polygon class="st0" points="317.3,693.3 317.3,642.5 361.3,617.1 405.3,642.5 405.3,693.3 361.3,718.8 "/>
<polygon class="st0" points="185.7,613.1 185.7,562.2 229.7,536.8 273.8,562.2 273.8,613.1 229.7,638.5 "/>
<polygon class="st0" points="273.2,613.1 273.2,562.2 317.3,536.8 361.3,562.2 361.3,613.1 317.3,638.5 "/>
<polygon class="st0" points="90.4,488.1 90.4,437.3 134.5,411.8 178.5,437.3 178.5,488.1 134.5,513.5 "/>
<polygon class="st0" points="177.9,488.1 177.9,437.3 222,411.8 266,437.3 266,488.1 222,513.5 "/>
<polygon class="st0" points="134.5,568.4 134.5,517.5 178.5,492.1 222.5,517.5 222.5,568.4 178.5,593.8 "/>
<polygon class="st0" points="222,568.4 222,517.5 266,492.1 310,517.5 310,568.4 266,593.8 "/>
<polygon class="st0" points="309.5,568.4 309.5,517.5 353.5,492.1 397.5,517.5 397.5,568.4 353.5,593.8 "/>
<polygon class="st0" points="397,568.4 397,517.5 441,492.1 485.1,517.5 485.1,568.4 441,593.8 "/>
<polygon class="st0" points="265.5,488.1 265.5,437.3 309.5,411.8 353.5,437.3 353.5,488.1 309.5,513.5 "/>
<polygon class="st0" points="353,488.1 353,437.3 397,411.8 441,437.3 441,488.1 397,513.5 "/>
<polygon class="st0" points="90.4,649.2 90.4,598.4 134.5,573 178.5,598.4 178.5,649.2 134.5,674.6 "/>
<polygon class="st0" points="177.9,649.2 177.9,598.4 222,573 266,598.4 266,649.2 222,674.6 "/>
<polygon class="st0" points="134.5,729.5 134.5,678.6 178.5,653.2 222.5,678.6 222.5,729.5 178.5,754.9 "/>
<polygon class="st0" points="222,729.5 222,678.6 266,653.2 310,678.6 310,729.5 266,754.9 "/>
<polygon class="st0" points="309.5,729.5 309.5,678.6 353.5,653.2 397.5,678.6 397.5,729.5 353.5,754.9 "/>
<polygon class="st0" points="397,729.5 397,678.6 441,653.2 485.1,678.6 485.1,729.5 441,754.9 "/>
<polygon class="st0" points="265.5,649.2 265.5,598.4 309.5,573 353.5,598.4 353.5,649.2 309.5,674.6 "/>
<polygon class="st0" points="353,649.2 353,598.4 397,573 441,598.4 441,649.2 397,674.6 "/>
</svg>
