<?xml version="1.0" encoding="utf-8"?>
<!-- Generator: Adobe Illustrator 22.0.1, SVG Export Plug-In . SVG Version: 6.00 Build 0)  -->
<svg version="1.1" id="Layer_1" xmlns="http://www.w3.org/2000/svg" xmlns:xlink="http://www.w3.org/1999/xlink" x="0px" y="0px"
	 viewBox="0 0 551.4 697" style="enable-background:new 0 0 551.4 697;" xml:space="preserve">
<style type="text/css">
	.st0{fill:none;stroke:#DDDBDB;stroke-width:0.5;stroke-miterlimit:10;}
	.st1{opacity:0.23;}
</style>
<polygon class="st0" points="0,91.7 0,56.3 30.7,38.6 61.3,56.3 61.3,91.7 30.7,109.4 "/>
<polygon class="st0" points="60.9,91.7 60.9,56.3 91.6,38.6 122.2,56.3 122.2,91.7 91.6,109.4 "/>
<polygon class="st0" points="30.7,145.3 30.7,109.9 61.3,92.2 92,109.9 92,145.3 61.3,163 "/>
<polygon class="st0" points="91.6,145.3 91.6,109.9 122.2,92.2 152.9,109.9 152.9,145.3 122.2,163 "/>
<polygon class="st0" points="152.5,145.3 152.5,109.9 183.2,92.2 213.8,109.9 213.8,145.3 183.2,163 "/>
<polygon class="st0" points="213.5,145.3 213.5,109.9 244.1,92.2 274.8,109.9 274.8,145.3 244.1,163 "/>
<polygon class="st0" points="121.9,91.7 121.9,56.3 152.5,38.6 183.2,56.3 183.2,91.7 152.5,109.4 "/>
<polygon class="st0" points="182.8,91.7 182.8,56.3 213.5,38.6 244.1,56.3 244.1,91.7 213.5,109.4 "/>
<polygon class="st0" points="0,199 0,163.6 30.7,145.9 61.3,163.6 61.3,199 30.7,216.7 "/>
<polygon class="st0" points="60.9,199 60.9,163.6 91.6,145.9 122.2,163.6 122.2,199 91.6,216.7 "/>
<polygon class="st0" points="30.7,252 30.7,216.6 61.3,198.9 92,216.6 92,252 61.3,269.7 "/>
<polygon class="st0" points="91.6,252 91.6,216.6 122.2,198.9 152.9,216.6 152.9,252 122.2,269.7 "/>
<polygon class="st0" points="152.5,252 152.5,216.6 183.2,198.9 213.8,216.6 213.8,252 183.2,269.7 "/>
<polygon class="st0" points="213.5,252 213.5,216.6 244.1,198.9 274.8,216.6 274.8,252 244.1,269.7 "/>
<polygon class="st0" points="121.9,199 121.9,163.6 152.5,145.9 183.2,163.6 183.2,199 152.5,216.7 "/>
<polygon class="st0" points="182.8,199 182.8,163.6 213.5,145.9 244.1,163.6 244.1,199 213.5,216.7 "/>
<polygon class="st0" points="244.1,91.7 244.1,56.3 274.8,38.6 305.4,56.3 305.4,91.7 274.8,109.4 "/>
<polygon class="st0" points="61.3,413.4 61.3,378 92,360.3 122.6,378 122.6,413.4 92,431.1 "/>
<polygon class="st0" points="274.8,145.3 274.8,109.9 305.4,92.2 336.1,109.9 336.1,145.3 305.4,163 "/>
<polygon class="st0" points="92,467 92,431.6 122.6,413.9 153.3,431.6 153.3,467 122.6,484.7 "/>
<polygon class="st0" points="152.9,467 152.9,431.6 183.6,413.9 214.2,431.6 214.2,467 183.6,484.7 "/>
<polygon class="st0" points="213.8,467 213.8,431.6 244.5,413.9 275.1,431.6 275.1,467 244.5,484.7 "/>
<polygon class="st0" points="122.2,413.4 122.2,378 152.9,360.3 183.6,378 183.6,413.4 152.9,431.1 "/>
<polygon class="st0" points="183.2,413.4 183.2,378 213.8,360.3 244.5,378 244.5,413.4 213.8,431.1 "/>
<polygon class="st0" points="244.1,199 244.1,163.6 274.8,145.9 305.4,163.6 305.4,199 274.8,216.7 "/>
<polygon class="st0" points="61.3,520.7 61.3,485.3 92,467.6 122.6,485.3 122.6,520.7 92,538.4 "/>
<polygon class="st0" points="274.8,252 274.8,216.6 305.4,198.9 336.1,216.6 336.1,252 305.4,269.7 "/>
<polygon class="st0" points="92,573.6 92,538.2 122.6,520.5 153.3,538.2 153.3,573.6 122.6,591.3 "/>
<polygon class="st0" points="152.9,573.6 152.9,538.2 183.6,520.5 214.2,538.2 214.2,573.6 183.6,591.3 "/>
<polygon class="st0" points="213.8,573.6 213.8,538.2 244.5,520.5 275.1,538.2 275.1,573.6 244.5,591.3 "/>
<polygon class="st0" points="122.2,520.7 122.2,485.3 152.9,467.6 183.6,485.3 183.6,520.7 152.9,538.4 "/>
<polygon class="st0" points="183.2,520.7 183.2,485.3 213.8,467.6 244.5,485.3 244.5,520.7 213.8,538.4 "/>
<polygon class="st0" points="0,306.2 0,270.8 30.7,253.1 61.3,270.8 61.3,306.2 30.7,323.9 "/>
<polygon class="st0" points="60.9,306.2 60.9,270.8 91.6,253.1 122.2,270.8 122.2,306.2 91.6,323.9 "/>
<polygon class="st0" points="30.7,359.2 30.7,323.8 61.3,306.1 92,323.8 92,359.2 61.3,376.9 "/>
<polygon class="st0" points="91.6,359.2 91.6,323.8 122.2,306.1 152.9,323.8 152.9,359.2 122.2,376.9 "/>
<polygon class="st0" points="152.5,359.2 152.5,323.8 183.2,306.1 213.8,323.8 213.8,359.2 183.2,376.9 "/>
<polygon class="st0" points="213.5,359.2 213.5,323.8 244.1,306.1 274.8,323.8 274.8,359.2 244.1,376.9 "/>
<polygon class="st0" points="121.9,306.2 121.9,270.8 152.5,253.1 183.2,270.8 183.2,306.2 152.5,323.9 "/>
<polygon class="st0" points="182.8,306.2 182.8,270.8 213.5,253.1 244.1,270.8 244.1,306.2 213.5,323.9 "/>
<polygon class="st0" points="244.1,306.2 244.1,270.8 274.8,253.1 305.4,270.8 305.4,306.2 274.8,323.9 "/>
<polygon class="st0" points="61.3,627.9 61.3,592.5 92,574.8 122.6,592.5 122.6,627.9 92,645.6 "/>
<polygon class="st0" points="274.8,359.2 274.8,323.8 305.4,306.1 336.1,323.8 336.1,359.2 305.4,376.9 "/>
<polygon class="st0" points="92,680.9 92,645.5 122.6,627.8 153.3,645.5 153.3,680.9 122.6,698.6 "/>
<polygon class="st0" points="152.9,680.9 152.9,645.5 183.6,627.8 214.2,645.5 214.2,680.9 183.6,698.6 "/>
<polygon class="st0" points="213.8,680.9 213.8,645.5 244.5,627.8 275.1,645.5 275.1,680.9 244.5,698.6 "/>
<polygon class="st0" points="122.2,627.9 122.2,592.5 152.9,574.8 183.6,592.5 183.6,627.9 152.9,645.6 "/>
<polygon class="st0" points="183.2,627.9 183.2,592.5 213.8,574.8 244.5,592.5 244.5,627.9 213.8,645.6 "/>
<polygon class="st0" points="183.2,413.4 183.2,378 213.8,360.3 244.5,378 244.5,413.4 213.8,431.1 "/>
<polygon class="st0" points="213.8,467 213.8,431.6 244.5,413.9 275.1,431.6 275.1,467 244.5,484.7 "/>
<polygon class="st0" points="274.8,467 274.8,431.6 305.4,413.9 336.1,431.6 336.1,467 305.4,484.7 "/>
<polygon class="st0" points="335.7,467 335.7,431.6 366.4,413.9 397,431.6 397,467 366.4,484.7 "/>
<polygon class="st0" points="244.1,413.4 244.1,378 274.8,360.3 305.4,378 305.4,413.4 274.8,431.1 "/>
<polygon class="st0" points="305,413.4 305,378 335.7,360.3 366.4,378 366.4,413.4 335.7,431.1 "/>
<polygon class="st0" points="183.2,520.7 183.2,485.3 213.8,467.6 244.5,485.3 244.5,520.7 213.8,538.4 "/>
<polygon class="st0" points="213.8,573.6 213.8,538.2 244.5,520.5 275.1,538.2 275.1,573.6 244.5,591.3 "/>
<polygon class="st0" points="274.8,573.6 274.8,538.2 305.4,520.5 336.1,538.2 336.1,573.6 305.4,591.3 "/>
<polygon class="st0" points="335.7,573.6 335.7,538.2 366.4,520.5 397,538.2 397,573.6 366.4,591.3 "/>
<polygon class="st0" points="244.1,520.7 244.1,485.3 274.8,467.6 305.4,485.3 305.4,520.7 274.8,538.4 "/>
<polygon class="st0" points="305,520.7 305,485.3 335.7,467.6 366.4,485.3 366.4,520.7 335.7,538.4 "/>
<polygon class="st0" points="183.2,627.9 183.2,592.5 213.8,574.8 244.5,592.5 244.5,627.9 213.8,645.6 "/>
<polygon class="st0" points="213.8,680.9 213.8,645.5 244.5,627.8 275.1,645.5 275.1,680.9 244.5,698.6 "/>
<polygon class="st0" points="274.8,680.9 274.8,645.5 305.4,627.8 336.1,645.5 336.1,680.9 305.4,698.6 "/>
<polygon class="st0" points="335.7,680.9 335.7,645.5 366.4,627.8 397,645.5 397,680.9 366.4,698.6 "/>
<polygon class="st0" points="244.1,627.9 244.1,592.5 274.8,574.8 305.4,592.5 305.4,627.9 274.8,645.6 "/>
<polygon class="st0" points="305,627.9 305,592.5 335.7,574.8 366.4,592.5 366.4,627.9 335.7,645.6 "/>
<polygon class="st0" points="366.4,413.4 366.4,378 397,360.3 427.7,378 427.7,413.4 397,431.1 "/>
<polygon class="st0" points="397,467 397,431.6 427.7,413.9 458.3,431.6 458.3,467 427.7,484.7 "/>
<polygon class="st0" points="457.9,467 457.9,431.6 488.6,413.9 519.3,431.6 519.3,467 488.6,484.7 "/>
<polygon class="st0" points="427.3,413.4 427.3,378 457.9,360.3 488.6,378 488.6,413.4 457.9,431.1 "/>
<polygon class="st0" points="488.2,413.4 488.2,378 518.9,360.3 549.5,378 549.5,413.4 518.9,431.1 "/>
<polygon class="st0" points="366.4,520.7 366.4,485.3 397,467.6 427.7,485.3 427.7,520.7 397,538.4 "/>
<polygon class="st0" points="397,573.6 397,538.2 427.7,520.5 458.3,538.2 458.3,573.6 427.7,591.3 "/>
<polygon class="st0" points="457.9,573.6 457.9,538.2 488.6,520.5 519.3,538.2 519.3,573.6 488.6,591.3 "/>
<polygon class="st0" points="427.3,520.7 427.3,485.3 457.9,467.6 488.6,485.3 488.6,520.7 457.9,538.4 "/>
<polygon class="st0" points="488.2,520.7 488.2,485.3 518.9,467.6 549.5,485.3 549.5,520.7 518.9,538.4 "/>
<polygon class="st0" points="366.4,627.9 366.4,592.5 397,574.8 427.7,592.5 427.7,627.9 397,645.6 "/>
<polygon class="st0" points="397,680.9 397,645.5 427.7,627.8 458.3,645.5 458.3,680.9 427.7,698.6 "/>
<polygon class="st0" points="457.9,680.9 457.9,645.5 488.6,627.8 519.3,645.5 519.3,680.9 488.6,698.6 "/>
<polygon class="st0" points="427.3,627.9 427.3,592.5 457.9,574.8 488.6,592.5 488.6,627.9 457.9,645.6 "/>
<polygon class="st0" points="488.2,627.9 488.2,592.5 518.9,574.8 549.5,592.5 549.5,627.9 518.9,645.6 "/>
<polygon class="st0" points="30.7,467.8 30.7,432.4 61.3,414.7 92,432.4 92,467.8 61.3,485.5 "/>
<polygon class="st0" points="30.7,575 30.7,539.6 61.3,521.9 92,539.6 92,575 61.3,592.7 "/>
<polygon class="st0" points="30.7,682.2 30.7,646.8 61.3,629.1 92,646.8 92,682.2 61.3,699.9 "/>
<polygon class="st0" points="305,92.9 305,57.5 335.7,39.8 366.4,57.5 366.4,92.9 335.7,110.6 "/>
<polygon class="st0" points="335.7,146.5 335.7,111.1 366.4,93.4 397,111.1 397,146.5 366.4,164.2 "/>
<polygon class="st0" points="396.6,146.5 396.6,111.1 427.3,93.4 457.9,111.1 457.9,146.5 427.3,164.2 "/>
<polygon class="st0" points="457.6,146.5 457.6,111.1 488.2,93.4 518.9,111.1 518.9,146.5 488.2,164.2 "/>
<polygon class="st0" points="366,92.9 366,57.5 396.6,39.8 427.3,57.5 427.3,92.9 396.6,110.6 "/>
<polygon class="st0" points="426.9,92.9 426.9,57.5 457.6,39.8 488.2,57.5 488.2,92.9 457.6,110.6 "/>
<polygon class="st0" points="305,200.2 305,164.8 335.7,147.1 366.4,164.8 366.4,200.2 335.7,217.9 "/>
<polygon class="st0" points="335.7,253.1 335.7,217.7 366.4,200 397,217.7 397,253.1 366.4,270.8 "/>
<polygon class="st0" points="396.6,253.1 396.6,217.7 427.3,200 457.9,217.7 457.9,253.1 427.3,270.8 "/>
<polygon class="st0" points="457.6,253.1 457.6,217.7 488.2,200 518.9,217.7 518.9,253.1 488.2,270.8 "/>
<polygon class="st0" points="366,200.2 366,164.8 396.6,147.1 427.3,164.8 427.3,200.2 396.6,217.9 "/>
<polygon class="st0" points="426.9,200.2 426.9,164.8 457.6,147.1 488.2,164.8 488.2,200.2 457.6,217.9 "/>
<polygon class="st0" points="305,307.4 305,272 335.7,254.3 366.4,272 366.4,307.4 335.7,325.1 "/>
<polygon class="st0" points="335.7,360.4 335.7,325 366.4,307.3 397,325 397,360.4 366.4,378.1 "/>
<polygon class="st0" points="396.6,360.4 396.6,325 427.3,307.3 457.9,325 457.9,360.4 427.3,378.1 "/>
<polygon class="st0" points="457.6,360.4 457.6,325 488.2,307.3 518.9,325 518.9,360.4 488.2,378.1 "/>
<polygon class="st0" points="366,307.4 366,272 396.6,254.3 427.3,272 427.3,307.4 396.6,325.1 "/>
<polygon class="st0" points="426.9,307.4 426.9,272 457.6,254.3 488.2,272 488.2,307.4 457.6,325.1 "/>
<g class="st1">
	<polygon class="st0" points="0,91.7 0,56.3 30.7,38.6 61.3,56.3 61.3,91.7 30.7,109.4 	"/>
	<polygon class="st0" points="60.9,91.7 60.9,56.3 91.6,38.6 122.2,56.3 122.2,91.7 91.6,109.4 	"/>
	<polygon class="st0" points="30.7,145.3 30.7,109.9 61.3,92.2 92,109.9 92,145.3 61.3,163 	"/>
	<polygon class="st0" points="91.6,145.3 91.6,109.9 122.2,92.2 152.9,109.9 152.9,145.3 122.2,163 	"/>
	<polygon class="st0" points="152.5,145.3 152.5,109.9 183.2,92.2 213.8,109.9 213.8,145.3 183.2,163 	"/>
	<polygon class="st0" points="213.5,145.3 213.5,109.9 244.1,92.2 274.8,109.9 274.8,145.3 244.1,163 	"/>
	<polygon class="st0" points="121.9,91.7 121.9,56.3 152.5,38.6 183.2,56.3 183.2,91.7 152.5,109.4 	"/>
	<polygon class="st0" points="182.8,91.7 182.8,56.3 213.5,38.6 244.1,56.3 244.1,91.7 213.5,109.4 	"/>
	<polygon class="st0" points="0,199 0,163.6 30.7,145.9 61.3,163.6 61.3,199 30.7,216.7 	"/>
	<polygon class="st0" points="60.9,199 60.9,163.6 91.6,145.9 122.2,163.6 122.2,199 91.6,216.7 	"/>
	<polygon class="st0" points="30.7,252 30.7,216.6 61.3,198.9 92,216.6 92,252 61.3,269.7 	"/>
	<polygon class="st0" points="91.6,252 91.6,216.6 122.2,198.9 152.9,216.6 152.9,252 122.2,269.7 	"/>
	<polygon class="st0" points="152.5,252 152.5,216.6 183.2,198.9 213.8,216.6 213.8,252 183.2,269.7 	"/>
	<polygon class="st0" points="213.5,252 213.5,216.6 244.1,198.9 274.8,216.6 274.8,252 244.1,269.7 	"/>
	<polygon class="st0" points="121.9,199 121.9,163.6 152.5,145.9 183.2,163.6 183.2,199 152.5,216.7 	"/>
	<polygon class="st0" points="182.8,199 182.8,163.6 213.5,145.9 244.1,163.6 244.1,199 213.5,216.7 	"/>
	<polygon class="st0" points="244.1,91.7 244.1,56.3 274.8,38.6 305.4,56.3 305.4,91.7 274.8,109.4 	"/>
	<polygon class="st0" points="61.3,413.4 61.3,378 92,360.3 122.6,378 122.6,413.4 92,431.1 	"/>
	<polygon class="st0" points="274.8,145.3 274.8,109.9 305.4,92.2 336.1,109.9 336.1,145.3 305.4,163 	"/>
	<polygon class="st0" points="92,467 92,431.6 122.6,413.9 153.3,431.6 153.3,467 122.6,484.7 	"/>
	<polygon class="st0" points="152.9,467 152.9,431.6 183.6,413.9 214.2,431.6 214.2,467 183.6,484.7 	"/>
	<polygon class="st0" points="213.8,467 213.8,431.6 244.5,413.9 275.1,431.6 275.1,467 244.5,484.7 	"/>
	<polygon class="st0" points="122.2,413.4 122.2,378 152.9,360.3 183.6,378 183.6,413.4 152.9,431.1 	"/>
	<polygon class="st0" points="183.2,413.4 183.2,378 213.8,360.3 244.5,378 244.5,413.4 213.8,431.1 	"/>
	<polygon class="st0" points="244.1,199 244.1,163.6 274.8,145.9 305.4,163.6 305.4,199 274.8,216.7 	"/>
	<polygon class="st0" points="61.3,520.7 61.3,485.3 92,467.6 122.6,485.3 122.6,520.7 92,538.4 	"/>
	<polygon class="st0" points="274.8,252 274.8,216.6 305.4,198.9 336.1,216.6 336.1,252 305.4,269.7 	"/>
	<polygon class="st0" points="92,573.6 92,538.2 122.6,520.5 153.3,538.2 153.3,573.6 122.6,591.3 	"/>
	<polygon class="st0" points="152.9,573.6 152.9,538.2 183.6,520.5 214.2,538.2 214.2,573.6 183.6,591.3 	"/>
	<polygon class="st0" points="213.8,573.6 213.8,538.2 244.5,520.5 275.1,538.2 275.1,573.6 244.5,591.3 	"/>
	<polygon class="st0" points="122.2,520.7 122.2,485.3 152.9,467.6 183.6,485.3 183.6,520.7 152.9,538.4 	"/>
	<polygon class="st0" points="183.2,520.7 183.2,485.3 213.8,467.6 244.5,485.3 244.5,520.7 213.8,538.4 	"/>
	<polygon class="st0" points="0,306.2 0,270.8 30.7,253.1 61.3,270.8 61.3,306.2 30.7,323.9 	"/>
	<polygon class="st0" points="60.9,306.2 60.9,270.8 91.6,253.1 122.2,270.8 122.2,306.2 91.6,323.9 	"/>
	<polygon class="st0" points="30.7,359.2 30.7,323.8 61.3,306.1 92,323.8 92,359.2 61.3,376.9 	"/>
	<polygon class="st0" points="91.6,359.2 91.6,323.8 122.2,306.1 152.9,323.8 152.9,359.2 122.2,376.9 	"/>
	<polygon class="st0" points="152.5,359.2 152.5,323.8 183.2,306.1 213.8,323.8 213.8,359.2 183.2,376.9 	"/>
	<polygon class="st0" points="213.5,359.2 213.5,323.8 244.1,306.1 274.8,323.8 274.8,359.2 244.1,376.9 	"/>
	<polygon class="st0" points="121.9,306.2 121.9,270.8 152.5,253.1 183.2,270.8 183.2,306.2 152.5,323.9 	"/>
	<polygon class="st0" points="182.8,306.2 182.8,270.8 213.5,253.1 244.1,270.8 244.1,306.2 213.5,323.9 	"/>
	<polygon class="st0" points="244.1,306.2 244.1,270.8 274.8,253.1 305.4,270.8 305.4,306.2 274.8,323.9 	"/>
	<polygon class="st0" points="61.3,627.9 61.3,592.5 92,574.8 122.6,592.5 122.6,627.9 92,645.6 	"/>
	<polygon class="st0" points="274.8,359.2 274.8,323.8 305.4,306.1 336.1,323.8 336.1,359.2 305.4,376.9 	"/>
	<polygon class="st0" points="92,680.9 92,645.5 122.6,627.8 153.3,645.5 153.3,680.9 122.6,698.6 	"/>
	<polygon class="st0" points="152.9,680.9 152.9,645.5 183.6,627.8 214.2,645.5 214.2,680.9 183.6,698.6 	"/>
	<polygon class="st0" points="213.8,680.9 213.8,645.5 244.5,627.8 275.1,645.5 275.1,680.9 244.5,698.6 	"/>
	<polygon class="st0" points="122.2,627.9 122.2,592.5 152.9,574.8 183.6,592.5 183.6,627.9 152.9,645.6 	"/>
	<polygon class="st0" points="183.2,627.9 183.2,592.5 213.8,574.8 244.5,592.5 244.5,627.9 213.8,645.6 	"/>
	<polygon class="st0" points="183.2,413.4 183.2,378 213.8,360.3 244.5,378 244.5,413.4 213.8,431.1 	"/>
	<polygon class="st0" points="213.8,467 213.8,431.6 244.5,413.9 275.1,431.6 275.1,467 244.5,484.7 	"/>
	<polygon class="st0" points="274.8,467 274.8,431.6 305.4,413.9 336.1,431.6 336.1,467 305.4,484.7 	"/>
	<polygon class="st0" points="335.7,467 335.7,431.6 366.4,413.9 397,431.6 397,467 366.4,484.7 	"/>
	<polygon class="st0" points="244.1,413.4 244.1,378 274.8,360.3 305.4,378 305.4,413.4 274.8,431.1 	"/>
	<polygon class="st0" points="305,413.4 305,378 335.7,360.3 366.4,378 366.4,413.4 335.7,431.1 	"/>
	<polygon class="st0" points="183.2,520.7 183.2,485.3 213.8,467.6 244.5,485.3 244.5,520.7 213.8,538.4 	"/>
	<polygon class="st0" points="213.8,573.6 213.8,538.2 244.5,520.5 275.1,538.2 275.1,573.6 244.5,591.3 	"/>
	<polygon class="st0" points="274.8,573.6 274.8,538.2 305.4,520.5 336.1,538.2 336.1,573.6 305.4,591.3 	"/>
	<polygon class="st0" points="335.7,573.6 335.7,538.2 366.4,520.5 397,538.2 397,573.6 366.4,591.3 	"/>
	<polygon class="st0" points="244.1,520.7 244.1,485.3 274.8,467.6 305.4,485.3 305.4,520.7 274.8,538.4 	"/>
	<polygon class="st0" points="305,520.7 305,485.3 335.7,467.6 366.4,485.3 366.4,520.7 335.7,538.4 	"/>
	<polygon class="st0" points="183.2,627.9 183.2,592.5 213.8,574.8 244.5,592.5 244.5,627.9 213.8,645.6 	"/>
	<polygon class="st0" points="213.8,680.9 213.8,645.5 244.5,627.8 275.1,645.5 275.1,680.9 244.5,698.6 	"/>
	<polygon class="st0" points="274.8,680.9 274.8,645.5 305.4,627.8 336.1,645.5 336.1,680.9 305.4,698.6 	"/>
	<polygon class="st0" points="335.7,680.9 335.7,645.5 366.4,627.8 397,645.5 397,680.9 366.4,698.6 	"/>
	<polygon class="st0" points="244.1,627.9 244.1,592.5 274.8,574.8 305.4,592.5 305.4,627.9 274.8,645.6 	"/>
	<polygon class="st0" points="305,627.9 305,592.5 335.7,574.8 366.4,592.5 366.4,627.9 335.7,645.6 	"/>
	<polygon class="st0" points="366.4,413.4 366.4,378 397,360.3 427.7,378 427.7,413.4 397,431.1 	"/>
	<polygon class="st0" points="397,467 397,431.6 427.7,413.9 458.3,431.6 458.3,467 427.7,484.7 	"/>
	<polygon class="st0" points="457.9,467 457.9,431.6 488.6,413.9 519.3,431.6 519.3,467 488.6,484.7 	"/>
	<polygon class="st0" points="427.3,413.4 427.3,378 457.9,360.3 488.6,378 488.6,413.4 457.9,431.1 	"/>
	<polygon class="st0" points="488.2,413.4 488.2,378 518.9,360.3 549.5,378 549.5,413.4 518.9,431.1 	"/>
	<polygon class="st0" points="366.4,520.7 366.4,485.3 397,467.6 427.7,485.3 427.7,520.7 397,538.4 	"/>
	<polygon class="st0" points="397,573.6 397,538.2 427.7,520.5 458.3,538.2 458.3,573.6 427.7,591.3 	"/>
	<polygon class="st0" points="457.9,573.6 457.9,538.2 488.6,520.5 519.3,538.2 519.3,573.6 488.6,591.3 	"/>
	<polygon class="st0" points="427.3,520.7 427.3,485.3 457.9,467.6 488.6,485.3 488.6,520.7 457.9,538.4 	"/>
	<polygon class="st0" points="488.2,520.7 488.2,485.3 518.9,467.6 549.5,485.3 549.5,520.7 518.9,538.4 	"/>
	<polygon class="st0" points="366.4,627.9 366.4,592.5 397,574.8 427.7,592.5 427.7,627.9 397,645.6 	"/>
	<polygon class="st0" points="397,680.9 397,645.5 427.7,627.8 458.3,645.5 458.3,680.9 427.7,698.6 	"/>
	<polygon class="st0" points="457.9,680.9 457.9,645.5 488.6,627.8 519.3,645.5 519.3,680.9 488.6,698.6 	"/>
	<polygon class="st0" points="427.3,627.9 427.3,592.5 457.9,574.8 488.6,592.5 488.6,627.9 457.9,645.6 	"/>
	<polygon class="st0" points="488.2,627.9 488.2,592.5 518.9,574.8 549.5,592.5 549.5,627.9 518.9,645.6 	"/>
	<polygon class="st0" points="30.7,467.8 30.7,432.4 61.3,414.7 92,432.4 92,467.8 61.3,485.5 	"/>
	<polygon class="st0" points="30.7,575 30.7,539.6 61.3,521.9 92,539.6 92,575 61.3,592.7 	"/>
	<polygon class="st0" points="30.7,682.2 30.7,646.8 61.3,629.1 92,646.8 92,682.2 61.3,699.9 	"/>
	<polygon class="st0" points="305,92.9 305,57.5 335.7,39.8 366.4,57.5 366.4,92.9 335.7,110.6 	"/>
	<polygon class="st0" points="335.7,146.5 335.7,111.1 366.4,93.4 397,111.1 397,146.5 366.4,164.2 	"/>
	<polygon class="st0" points="396.6,146.5 396.6,111.1 427.3,93.4 457.9,111.1 457.9,146.5 427.3,164.2 	"/>
	<polygon class="st0" points="457.6,146.5 457.6,111.1 488.2,93.4 518.9,111.1 518.9,146.5 488.2,164.2 	"/>
	<polygon class="st0" points="366,92.9 366,57.5 396.6,39.8 427.3,57.5 427.3,92.9 396.6,110.6 	"/>
	<polygon class="st0" points="426.9,92.9 426.9,57.5 457.6,39.8 488.2,57.5 488.2,92.9 457.6,110.6 	"/>
	<polygon class="st0" points="305,200.2 305,164.8 335.7,147.1 366.4,164.8 366.4,200.2 335.7,217.9 	"/>
	<polygon class="st0" points="335.7,253.1 335.7,217.7 366.4,200 397,217.7 397,253.1 366.4,270.8 	"/>
	<polygon class="st0" points="396.6,253.1 396.6,217.7 427.3,200 457.9,217.7 457.9,253.1 427.3,270.8 	"/>
	<polygon class="st0" points="457.6,253.1 457.6,217.7 488.2,200 518.9,217.7 518.9,253.1 488.2,270.8 	"/>
	<polygon class="st0" points="366,200.2 366,164.8 396.6,147.1 427.3,164.8 427.3,200.2 396.6,217.9 	"/>
	<polygon class="st0" points="426.9,200.2 426.9,164.8 457.6,147.1 488.2,164.8 488.2,200.2 457.6,217.9 	"/>
	<polygon class="st0" points="305,307.4 305,272 335.7,254.3 366.4,272 366.4,307.4 335.7,325.1 	"/>
	<polygon class="st0" points="335.7,360.4 335.7,325 366.4,307.3 397,325 397,360.4 366.4,378.1 	"/>
	<polygon class="st0" points="396.6,360.4 396.6,325 427.3,307.3 457.9,325 457.9,360.4 427.3,378.1 	"/>
	<polygon class="st0" points="457.6,360.4 457.6,325 488.2,307.3 518.9,325 518.9,360.4 488.2,378.1 	"/>
	<polygon class="st0" points="366,307.4 366,272 396.6,254.3 427.3,272 427.3,307.4 396.6,325.1 	"/>
	<polygon class="st0" points="426.9,307.4 426.9,272 457.6,254.3 488.2,272 488.2,307.4 457.6,325.1 	"/>
</g>
<g>
	<polygon class="st0" points="0,56 0,20.6 30.7,2.9 61.3,20.6 61.3,56 30.7,73.7 	"/>
	<polygon class="st0" points="60.9,56 60.9,20.6 91.6,2.9 122.2,20.6 122.2,56 91.6,73.7 	"/>
	<polygon class="st0" points="30.7,109.6 30.7,74.2 61.3,56.5 92,74.2 92,109.6 61.3,127.3 	"/>
	<polygon class="st0" points="91.6,109.6 91.6,74.2 122.2,56.5 152.9,74.2 152.9,109.6 122.2,127.3 	"/>
	<polygon class="st0" points="152.5,109.6 152.5,74.2 183.2,56.5 213.8,74.2 213.8,109.6 183.2,127.3 	"/>
	<polygon class="st0" points="213.5,109.6 213.5,74.2 244.1,56.5 274.8,74.2 274.8,109.6 244.1,127.3 	"/>
	<polygon class="st0" points="121.9,56 121.9,20.6 152.5,2.9 183.2,20.6 183.2,56 152.5,73.7 	"/>
	<polygon class="st0" points="182.8,56 182.8,20.6 213.5,2.9 244.1,20.6 244.1,56 213.5,73.7 	"/>
	<polygon class="st0" points="0,163.3 0,127.9 30.7,110.2 61.3,127.9 61.3,163.3 30.7,181 	"/>
	<polygon class="st0" points="60.9,163.3 60.9,127.9 91.6,110.2 122.2,127.9 122.2,163.3 91.6,181 	"/>
	<polygon class="st0" points="30.7,216.2 30.7,180.8 61.3,163.1 92,180.8 92,216.2 61.3,233.9 	"/>
	<polygon class="st0" points="91.6,216.2 91.6,180.8 122.2,163.1 152.9,180.8 152.9,216.2 122.2,233.9 	"/>
	<polygon class="st0" points="152.5,216.2 152.5,180.8 183.2,163.1 213.8,180.8 213.8,216.2 183.2,233.9 	"/>
	<polygon class="st0" points="213.5,216.2 213.5,180.8 244.1,163.1 274.8,180.8 274.8,216.2 244.1,233.9 	"/>
	<polygon class="st0" points="121.9,163.3 121.9,127.9 152.5,110.2 183.2,127.9 183.2,163.3 152.5,181 	"/>
	<polygon class="st0" points="182.8,163.3 182.8,127.9 213.5,110.2 244.1,127.9 244.1,163.3 213.5,181 	"/>
	<polygon class="st0" points="244.1,56 244.1,20.6 274.8,2.9 305.4,20.6 305.4,56 274.8,73.7 	"/>
	<polygon class="st0" points="61.3,377.7 61.3,342.3 92,324.6 122.6,342.3 122.6,377.7 92,395.4 	"/>
	<polygon class="st0" points="274.8,109.6 274.8,74.2 305.4,56.5 336.1,74.2 336.1,109.6 305.4,127.3 	"/>
	<polygon class="st0" points="92,431.3 92,395.9 122.6,378.2 153.3,395.9 153.3,431.3 122.6,449 	"/>
	<polygon class="st0" points="152.9,431.3 152.9,395.9 183.6,378.2 214.2,395.9 214.2,431.3 183.6,449 	"/>
	<polygon class="st0" points="213.8,431.3 213.8,395.9 244.5,378.2 275.1,395.9 275.1,431.3 244.5,449 	"/>
	<polygon class="st0" points="122.2,377.7 122.2,342.3 152.9,324.6 183.6,342.3 183.6,377.7 152.9,395.4 	"/>
	<polygon class="st0" points="183.2,377.7 183.2,342.3 213.8,324.6 244.5,342.3 244.5,377.7 213.8,395.4 	"/>
	<polygon class="st0" points="244.1,163.3 244.1,127.9 274.8,110.2 305.4,127.9 305.4,163.3 274.8,181 	"/>
	<polygon class="st0" points="61.3,484.9 61.3,449.5 92,431.8 122.6,449.5 122.6,484.9 92,502.6 	"/>
	<polygon class="st0" points="274.8,216.2 274.8,180.8 305.4,163.1 336.1,180.8 336.1,216.2 305.4,233.9 	"/>
	<polygon class="st0" points="92,537.9 92,502.5 122.6,484.8 153.3,502.5 153.3,537.9 122.6,555.6 	"/>
	<polygon class="st0" points="152.9,537.9 152.9,502.5 183.6,484.8 214.2,502.5 214.2,537.9 183.6,555.6 	"/>
	<polygon class="st0" points="213.8,537.9 213.8,502.5 244.5,484.8 275.1,502.5 275.1,537.9 244.5,555.6 	"/>
	<polygon class="st0" points="122.2,484.9 122.2,449.5 152.9,431.8 183.6,449.5 183.6,484.9 152.9,502.6 	"/>
	<polygon class="st0" points="183.2,484.9 183.2,449.5 213.8,431.8 244.5,449.5 244.5,484.9 213.8,502.6 	"/>
	<polygon class="st0" points="0,270.5 0,235.1 30.7,217.4 61.3,235.1 61.3,270.5 30.7,288.2 	"/>
	<polygon class="st0" points="60.9,270.5 60.9,235.1 91.6,217.4 122.2,235.1 122.2,270.5 91.6,288.2 	"/>
	<polygon class="st0" points="30.7,323.5 30.7,288.1 61.3,270.4 92,288.1 92,323.5 61.3,341.2 	"/>
	<polygon class="st0" points="91.6,323.5 91.6,288.1 122.2,270.4 152.9,288.1 152.9,323.5 122.2,341.2 	"/>
	<polygon class="st0" points="152.5,323.5 152.5,288.1 183.2,270.4 213.8,288.1 213.8,323.5 183.2,341.2 	"/>
	<polygon class="st0" points="213.5,323.5 213.5,288.1 244.1,270.4 274.8,288.1 274.8,323.5 244.1,341.2 	"/>
	<polygon class="st0" points="121.9,270.5 121.9,235.1 152.5,217.4 183.2,235.1 183.2,270.5 152.5,288.2 	"/>
	<polygon class="st0" points="182.8,270.5 182.8,235.1 213.5,217.4 244.1,235.1 244.1,270.5 213.5,288.2 	"/>
	<polygon class="st0" points="244.1,270.5 244.1,235.1 274.8,217.4 305.4,235.1 305.4,270.5 274.8,288.2 	"/>
	<polygon class="st0" points="61.3,592.2 61.3,556.8 92,539.1 122.6,556.8 122.6,592.2 92,609.9 	"/>
	<polygon class="st0" points="274.8,323.5 274.8,288.1 305.4,270.4 336.1,288.1 336.1,323.5 305.4,341.2 	"/>
	<polygon class="st0" points="92,645.1 92,609.7 122.6,592.1 153.3,609.7 153.3,645.1 122.6,662.8 	"/>
	<polygon class="st0" points="152.9,645.1 152.9,609.7 183.6,592.1 214.2,609.7 214.2,645.1 183.6,662.8 	"/>
	<polygon class="st0" points="213.8,645.1 213.8,609.7 244.5,592.1 275.1,609.7 275.1,645.1 244.5,662.8 	"/>
	<polygon class="st0" points="122.2,592.2 122.2,556.8 152.9,539.1 183.6,556.8 183.6,592.2 152.9,609.9 	"/>
	<polygon class="st0" points="183.2,592.2 183.2,556.8 213.8,539.1 244.5,556.8 244.5,592.2 213.8,609.9 	"/>
	<polygon class="st0" points="183.2,377.7 183.2,342.3 213.8,324.6 244.5,342.3 244.5,377.7 213.8,395.4 	"/>
	<polygon class="st0" points="213.8,431.3 213.8,395.9 244.5,378.2 275.1,395.9 275.1,431.3 244.5,449 	"/>
	<polygon class="st0" points="274.8,431.3 274.8,395.9 305.4,378.2 336.1,395.9 336.1,431.3 305.4,449 	"/>
	<polygon class="st0" points="335.7,431.3 335.7,395.9 366.4,378.2 397,395.9 397,431.3 366.4,449 	"/>
	<polygon class="st0" points="244.1,377.7 244.1,342.3 274.8,324.6 305.4,342.3 305.4,377.7 274.8,395.4 	"/>
	<polygon class="st0" points="305,377.7 305,342.3 335.7,324.6 366.4,342.3 366.4,377.7 335.7,395.4 	"/>
	<polygon class="st0" points="183.2,484.9 183.2,449.5 213.8,431.8 244.5,449.5 244.5,484.9 213.8,502.6 	"/>
	<polygon class="st0" points="213.8,537.9 213.8,502.5 244.5,484.8 275.1,502.5 275.1,537.9 244.5,555.6 	"/>
	<polygon class="st0" points="274.8,537.9 274.8,502.5 305.4,484.8 336.1,502.5 336.1,537.9 305.4,555.6 	"/>
	<polygon class="st0" points="335.7,537.9 335.7,502.5 366.4,484.8 397,502.5 397,537.9 366.4,555.6 	"/>
	<polygon class="st0" points="244.1,484.9 244.1,449.5 274.8,431.8 305.4,449.5 305.4,484.9 274.8,502.6 	"/>
	<polygon class="st0" points="305,484.9 305,449.5 335.7,431.8 366.4,449.5 366.4,484.9 335.7,502.6 	"/>
	<polygon class="st0" points="183.2,592.2 183.2,556.8 213.8,539.1 244.5,556.8 244.5,592.2 213.8,609.9 	"/>
	<polygon class="st0" points="213.8,645.1 213.8,609.7 244.5,592.1 275.1,609.7 275.1,645.1 244.5,662.8 	"/>
	<polygon class="st0" points="274.8,645.1 274.8,609.7 305.4,592.1 336.1,609.7 336.1,645.1 305.4,662.8 	"/>
	<polygon class="st0" points="335.7,645.1 335.7,609.7 366.4,592.1 397,609.7 397,645.1 366.4,662.8 	"/>
	<polygon class="st0" points="244.1,592.2 244.1,556.8 274.8,539.1 305.4,556.8 305.4,592.2 274.8,609.9 	"/>
	<polygon class="st0" points="305,592.2 305,556.8 335.7,539.1 366.4,556.8 366.4,592.2 335.7,609.9 	"/>
	<polygon class="st0" points="366.4,377.7 366.4,342.3 397,324.6 427.7,342.3 427.7,377.7 397,395.4 	"/>
	<polygon class="st0" points="397,431.3 397,395.9 427.7,378.2 458.3,395.9 458.3,431.3 427.7,449 	"/>
	<polygon class="st0" points="457.9,431.3 457.9,395.9 488.6,378.2 519.3,395.9 519.3,431.3 488.6,449 	"/>
	<polygon class="st0" points="427.3,377.7 427.3,342.3 457.9,324.6 488.6,342.3 488.6,377.7 457.9,395.4 	"/>
	<polygon class="st0" points="488.2,377.7 488.2,342.3 518.9,324.6 549.5,342.3 549.5,377.7 518.9,395.4 	"/>
	<polygon class="st0" points="366.4,484.9 366.4,449.5 397,431.8 427.7,449.5 427.7,484.9 397,502.6 	"/>
	<polygon class="st0" points="397,537.9 397,502.5 427.7,484.8 458.3,502.5 458.3,537.9 427.7,555.6 	"/>
	<polygon class="st0" points="457.9,537.9 457.9,502.5 488.6,484.8 519.3,502.5 519.3,537.9 488.6,555.6 	"/>
	<polygon class="st0" points="427.3,484.9 427.3,449.5 457.9,431.8 488.6,449.5 488.6,484.9 457.9,502.6 	"/>
	<polygon class="st0" points="488.2,484.9 488.2,449.5 518.9,431.8 549.5,449.5 549.5,484.9 518.9,502.6 	"/>
	<polygon class="st0" points="366.4,592.2 366.4,556.8 397,539.1 427.7,556.8 427.7,592.2 397,609.9 	"/>
	<polygon class="st0" points="397,645.1 397,609.7 427.7,592.1 458.3,609.7 458.3,645.1 427.7,662.8 	"/>
	<polygon class="st0" points="457.9,645.1 457.9,609.7 488.6,592.1 519.3,609.7 519.3,645.1 488.6,662.8 	"/>
	<polygon class="st0" points="427.3,592.2 427.3,556.8 457.9,539.1 488.6,556.8 488.6,592.2 457.9,609.9 	"/>
	<polygon class="st0" points="488.2,592.2 488.2,556.8 518.9,539.1 549.5,556.8 549.5,592.2 518.9,609.9 	"/>
	<polygon class="st0" points="30.7,432.1 30.7,396.7 61.3,379 92,396.7 92,432.1 61.3,449.8 	"/>
	<polygon class="st0" points="30.7,539.3 30.7,503.9 61.3,486.2 92,503.9 92,539.3 61.3,557 	"/>
	<polygon class="st0" points="30.7,646.5 30.7,611.1 61.3,593.4 92,611.1 92,646.5 61.3,664.2 	"/>
	<polygon class="st0" points="305,57.2 305,21.8 335.7,4.1 366.4,21.8 366.4,57.2 335.7,74.9 	"/>
	<polygon class="st0" points="335.7,110.8 335.7,75.4 366.4,57.7 397,75.4 397,110.8 366.4,128.5 	"/>
	<polygon class="st0" points="396.6,110.8 396.6,75.4 427.3,57.7 457.9,75.4 457.9,110.8 427.3,128.5 	"/>
	<polygon class="st0" points="457.6,110.8 457.6,75.4 488.2,57.7 518.9,75.4 518.9,110.8 488.2,128.5 	"/>
	<polygon class="st0" points="366,57.2 366,21.8 396.6,4.1 427.3,21.8 427.3,57.2 396.6,74.9 	"/>
	<polygon class="st0" points="426.9,57.2 426.9,21.8 457.6,4.1 488.2,21.8 488.2,57.2 457.6,74.9 	"/>
	<polygon class="st0" points="305,164.4 305,129 335.7,111.3 366.4,129 366.4,164.4 335.7,182.1 	"/>
	<polygon class="st0" points="335.7,217.4 335.7,182 366.4,164.3 397,182 397,217.4 366.4,235.1 	"/>
	<polygon class="st0" points="396.6,217.4 396.6,182 427.3,164.3 457.9,182 457.9,217.4 427.3,235.1 	"/>
	<polygon class="st0" points="457.6,217.4 457.6,182 488.2,164.3 518.9,182 518.9,217.4 488.2,235.1 	"/>
	<polygon class="st0" points="366,164.4 366,129 396.6,111.3 427.3,129 427.3,164.4 396.6,182.1 	"/>
	<polygon class="st0" points="426.9,164.4 426.9,129 457.6,111.3 488.2,129 488.2,164.4 457.6,182.1 	"/>
	<polygon class="st0" points="305,271.7 305,236.3 335.7,218.6 366.4,236.3 366.4,271.7 335.7,289.4 	"/>
	<polygon class="st0" points="335.7,324.6 335.7,289.2 366.4,271.5 397,289.2 397,324.6 366.4,342.3 	"/>
	<polygon class="st0" points="396.6,324.6 396.6,289.2 427.3,271.5 457.9,289.2 457.9,324.6 427.3,342.3 	"/>
	<polygon class="st0" points="457.6,324.6 457.6,289.2 488.2,271.5 518.9,289.2 518.9,324.6 488.2,342.3 	"/>
	<polygon class="st0" points="366,271.7 366,236.3 396.6,218.6 427.3,236.3 427.3,271.7 396.6,289.4 	"/>
	<polygon class="st0" points="426.9,271.7 426.9,236.3 457.6,218.6 488.2,236.3 488.2,271.7 457.6,289.4 	"/>
</g>
</svg>
